# xmcd CD database file
#
# Track frame offsets:
#	150
#	18872
#	43197
#	58145
#	77660
#	95382
#	118720
#	143890
#	159755
#
# Disc length: 2433 seconds
#
# Revision: 0
# Processed by: cddbd v1.5PL3 Copyright (c) Steve Scherf et al.
# Submitted via: CDex 1.51
#
DISCID=6b097f09
DTITLE=John Young Trio - A Touch Of Pepper
DYEAR=1962
DGENRE=Jazz
TTITLE0=Blues Oreenee
TTITLE1=Joey
TTITLE2=Everything's Coming Up Roses
TTITLE3=A Lot Of Living To Do
TTITLE4=Search Me
TTITLE5=Serenata
TTITLE6=Inch Worm
TTITLE7=The Bridge
TTITLE8=In Other Words (Fly Me To The Moon)
EXTD=YEAR: 1962
EXTT0=
EXTT1=
EXTT2=
EXTT3=
EXTT4=
EXTT5=
EXTT6=
EXTT7=
EXTT8=
PLAYORDER=
